# xmcd
#
# Track frame offsets: 
#        150
#        31029
#        51657
#        71216
#        97189
#        116399
#        132341
#        156775
#        183122
#        212683
#        234290
#        255002
#
# Disc length: 3808 seconds
#
# Revision: 0
# Processed by: cddbd v1.5.2PL0 Copyright (c) Steve Scherf et al.
# Submitted via: ExactAudioCopy v1.0b2
#
DISCID=9d0ede0c
DTITLE=Joe Bonamassa - Dust Bowl
DYEAR=2011
DGENRE=Blues
TTITLE0=Slow Train
TTITLE1=Dust Bowl
TTITLE2=Tennessee Plates
TTITLE3=The Meaning of The Blues
TTITLE4=Blac Lung Heartache
TTITLE5=You Better Watch Yourself
TTITLE6=The Last Matador Of Bayonne 
TTITLE7=Heartbreaker
TTITLE8=No Love On The Street
TTITLE9=The Whale That Swallowed Jonah
TTITLE10=Sweet Rowena
TTITLE11=Prisoner
EXTD=
EXTT0=
EXTT1=
EXTT2=
EXTT3=
EXTT4=
EXTT5=
EXTT6=
EXTT7=
EXTT8=
EXTT9=
EXTT10=
EXTT11=
PLAYORDER=
